<svg xmlns="http://www.w3.org/2000/svg" width="1024" height="1024" viewBox="0 0 1024 1024" fill="none">
  <!-- Rounded dark background tile scaled down to 80% to leave transparent borders for macOS dock -->
  <rect x="100" y="100" width="824" height="824" rx="180" fill="#14151a" />
  <rect x="108" y="108" width="808" height="808" rx="172" stroke="#1d202b" stroke-width="16" />
  
  <!-- Centered logo inside the tile -->
  <g transform="translate(179, 179) scale(0.65)">
    <rect x="574.097" y="107" width="262.903" height="129.032" fill="#BEFAD6"/>
    <rect x="316.032" y="365.064" width="129.032" height="293.548" fill="#79DCA1"/>
    <rect x="187" y="365.064" width="129.032" height="293.548" fill="#5FC186"/>
    <rect x="445.064" y="107" width="129.032" height="129.032" fill="#AEEAC6"/>
    <rect x="445.064" y="787.645" width="129.032" height="129.032" fill="#AEEAC6"/>
    <rect x="445.064" y="236.032" width="129.032" height="129.032" fill="#95E5B5"/>
    <rect x="316.032" y="236.032" width="129.032" height="129.032" fill="#6DCA92"/>
    <rect x="187" y="236.032" width="129.032" height="129.032" fill="#81E1A8"/>
    <rect x="316.032" y="787.645" width="129.032" height="129.032" fill="#9CDAB5"/>
    <rect x="316.032" y="107" width="129.032" height="129.032" fill="#9CDAB5"/>
    <rect x="316.032" y="658.613" width="129.032" height="129.032" fill="#6DCA92"/>
    <rect x="187" y="658.613" width="129.032" height="129.032" fill="#81E1A8"/>
    <rect x="445.064" y="658.613" width="129.032" height="129.032" fill="#95E5B5"/>
    <rect x="574.097" y="787.645" width="262.903" height="129.032" fill="#BEFAD6"/>
  </g>
</svg>